<svg xmlns="http://www.w3.org/2000/svg" viewBox="0 0 1200 800" role="img" aria-labelledby="title desc">
  <title id="title">Commit Confidential About dossier</title>
  <desc id="desc">A classified field file style page with redaction bars and a checkmark stamp.</desc>
  <defs>
    <linearGradient id="folderShade" x1="0" y1="0" x2="0" y2="1">
      <stop offset="0%" stop-color="#e2c08f"/>
      <stop offset="100%" stop-color="#c59654"/>
    </linearGradient>
  </defs>
  <rect width="1200" height="800" fill="#151515"/>
  <rect x="80" y="90" width="1040" height="640" rx="26" fill="url(#folderShade)"/>
  <rect x="120" y="70" width="220" height="110" rx="18" fill="url(#folderShade)"/>
  <rect x="170" y="160" width="860" height="560" rx="18" fill="#f7f7f7" stroke="#d3d3d3" stroke-width="2"/>
  <text x="230" y="250" font-family="'Inter','Helvetica Neue',Arial,sans-serif" font-size="96" font-weight="700" fill="#b92222">ABOUT</text>
  <g font-family="'Inter','Helvetica Neue',Arial,sans-serif" font-size="32" fill="#1f1f1f">
    <text x="230" y="320">Led by a community manager with</text>
    <text x="230" y="365">10+ years experience in</text>
    <text x="230" y="410">Community management experience at</text>
    <text x="230" y="455">top tier browser, email,</text>
    <text x="230" y="500">database, SaaS, and</text>
    <text x="230" y="545">organizations and enterprises.</text>
  </g>
  <g fill="#b92222">
    <rect x="700" y="288" width="350" height="30" rx="8"/>
    <rect x="660" y="333" width="380" height="30" rx="8"/>
    <rect x="780" y="378" width="330" height="30" rx="8"/>
    <rect x="740" y="423" width="320" height="30" rx="8"/>
    <rect x="740" y="468" width="340" height="30" rx="8"/>
    <rect x="740" y="513" width="310" height="30" rx="8"/>
  </g>
  <rect x="650" y="590" width="370" height="90" fill="none" stroke="#b92222" stroke-width="6"/>
  <text x="670" y="640" font-family="'Inter','Helvetica Neue',Arial,sans-serif" font-size="42" font-weight="700" fill="#b92222">CLASSIFIED</text>
  <text x="670" y="685" font-family="'Inter','Helvetica Neue',Arial,sans-serif" font-size="42" font-weight="700" fill="#b92222">FIELD FILE</text>
  <circle cx="270" cy="640" r="36" fill="none" stroke="#17894f" stroke-width="8"/>
  <path d="M245 638 l20 22 35 -38" fill="none" stroke="#17894f" stroke-width="8" stroke-linecap="round" stroke-linejoin="round"/>
</svg>
